<svg width="100" height="100" viewBox="0 0 100 100" fill="none" xmlns="http://www.w3.org/2000/svg">
<circle cx="50" cy="50" r="50" fill="#7BB899"/>
<path d="M65.12 58.72H73.04C72.56 60.832 71.744 62.896 70.592 64.912C69.488 66.928 68.024 68.848 66.2 70.672C64.376 72.496 62.096 73.96 59.36 75.064C56.624 76.168 53.624 76.72 50.36 76.72C43.592 76.72 37.88 74.296 33.224 69.448C28.568 64.6 26.24 58.384 26.24 50.8C26.24 43.216 28.568 37 33.224 32.152C37.88 27.304 43.592 24.88 50.36 24.88C56.312 24.88 61.28 26.608 65.264 30.064C69.296 33.472 71.888 37.624 73.04 42.52H65.12C63.872 39.16 61.928 36.592 59.288 34.816C56.648 32.992 53.672 32.08 50.36 32.08C45.56 32.08 41.6 33.784 38.48 37.192C35.36 40.6 33.8 45.136 33.8 50.8C33.8 56.464 35.36 61 38.48 64.408C41.6 67.816 45.56 69.52 50.36 69.52C54.2 69.52 57.368 68.488 59.864 66.424C62.408 64.312 64.16 61.744 65.12 58.72Z" fill="white"/>
<circle cx="77" cy="21" r="6" fill="white"/>
</svg>
