<?xml version="1.0" standalone="no"?>
<!DOCTYPE svg PUBLIC "-//W3C//DTD SVG 20010904//EN"
 "http://www.w3.org/TR/2001/REC-SVG-20010904/DTD/svg10.dtd">
<svg version="1.0" xmlns="http://www.w3.org/2000/svg"
 width="700.000000pt" height="700.000000pt" viewBox="0 0 700.000000 700.000000"
 preserveAspectRatio="xMidYMid meet">
<metadata>
Created by potrace 1.14, written by Peter Selinger 2001-2017
</metadata>
<g transform="translate(0.000000,700.000000) scale(0.100000,-0.100000)"
fill="#000000" stroke="none">
<path d="M3185 6989 c-604 -53 -1219 -282 -1717 -638 -1246 -891 -1770 -2483
-1298 -3936 393 -1207 1424 -2116 2670 -2354 243 -46 344 -55 645 -55 306 -1
405 7 645 50 1418 259 2541 1372 2809 2786 54 283 74 652 52 934 -67 834 -423
1605 -1016 2199 -583 584 -1359 945 -2180 1015 -141 12 -468 11 -610 -1z
m2287 -1050 c170 -36 297 -168 329 -343 24 -126 -24 -268 -120 -363 -240 -236
-641 -104 -702 231 -52 279 213 534 493 475z m-1798 -689 c375 -31 662 -150
929 -387 213 -190 372 -423 460 -679 19 -54 37 -111 41 -126 l6 -28 -274 0
-275 0 -45 95 c-223 470 -692 704 -1224 609 -325 -58 -615 -279 -774 -591 -87
-168 -130 -335 -148 -563 -28 -370 51 -712 223 -965 106 -156 309 -324 476
-394 289 -122 664 -118 930 9 114 55 189 111 292 216 118 123 197 246 254 397
l18 47 273 0 c151 0 274 -2 274 -4 0 -21 -57 -192 -89 -265 -86 -199 -201
-369 -358 -531 -193 -201 -417 -330 -699 -403 -157 -41 -246 -51 -444 -51
-199 1 -312 15 -470 61 -438 126 -821 455 -1025 878 -119 248 -172 475 -182
790 -23 698 239 1257 755 1613 221 152 494 248 772 271 140 12 165 12 304 1z"/>
</g>
</svg>
