<svg width="119" height="23" viewBox="0 0 119 23" fill="none" xmlns="http://www.w3.org/2000/svg">
<g clip-path="url(#clip0_5909_3)">
<path d="M10.3996 19.8C13.9373 19.8 16.0461 17.5879 16.905 15.3H19.2037C18.2982 18.3171 15.4326 21.8 10.3996 21.8C5.17365 21.8 0.849609 17.6921 0.849609 11.5C0.849609 5.30785 5.17365 1.19995 10.3996 1.19995C15.0986 1.19995 18.1682 4.22632 19.1967 7.54995H16.8903C15.7026 4.70687 13.1662 3.19995 10.3996 3.19995C8.30172 3.19995 6.44021 4.00356 5.10677 5.46265C3.77545 6.91941 2.99961 8.99643 2.99961 11.5C2.99961 14.0035 3.77545 16.0805 5.10677 17.5373C6.44021 18.9963 8.30172 19.8 10.3996 19.8Z" stroke="black"/>
<path d="M41.8637 11.5C41.8637 17.6921 37.5396 21.8 32.3137 21.8C27.0877 21.8 22.7637 17.6921 22.7637 11.5C22.7637 5.30785 27.0877 1.19995 32.3137 1.19995C37.5396 1.19995 41.8637 5.30785 41.8637 11.5ZM39.7137 11.5C39.7137 8.99643 38.9378 6.91941 37.6065 5.46265C36.2731 4.00356 34.4116 3.19995 32.3137 3.19995C30.2158 3.19995 28.3543 4.00356 27.0208 5.46265C25.6895 6.91941 24.9137 8.99643 24.9137 11.5C24.9137 14.0035 25.6895 16.0805 27.0208 17.5373C28.3543 18.9963 30.2158 19.8 32.3137 19.8C34.4116 19.8 36.2731 18.9963 37.6065 17.5373C38.9378 16.0805 39.7137 14.0035 39.7137 11.5Z" stroke="black"/>
<path d="M48.607 19V19.5H49.107H58.807V21.5H46.457V1.5H48.607V19Z" stroke="black"/>
<path d="M79.6566 11.5C79.6566 17.6921 75.3326 21.8 70.1066 21.8C64.8807 21.8 60.5566 17.6921 60.5566 11.5C60.5566 5.30785 64.8807 1.19995 70.1066 1.19995C75.3326 1.19995 79.6566 5.30785 79.6566 11.5ZM77.5066 11.5C77.5066 8.99643 76.7308 6.91941 75.3995 5.46265C74.066 4.00356 72.2045 3.19995 70.1066 3.19995C68.0088 3.19995 66.1472 4.00356 64.8138 5.46265C63.4825 6.91941 62.7066 8.99643 62.7066 11.5C62.7066 14.0035 63.4825 16.0805 64.8138 17.5373C66.1472 18.9963 68.0088 19.8 70.1066 19.8C72.2045 19.8 74.066 18.9963 75.3995 17.5373C76.7308 16.0805 77.5066 14.0035 77.5066 11.5Z" stroke="black"/>
<path d="M92.0964 14.8536L98.7429 21.5H96.1071L88.7536 14.1464L88.6071 14H88.4H86.9H86.4V14.5V21.5H84.25V1.5H93.2C96.3449 1.5 98.85 3.91628 98.85 7.75C98.85 11.5837 96.3449 14 93.2 14H92.45H91.2429L92.0964 14.8536ZM86.4 11.5V12H86.9H93.05C95.0643 12 96.7 10.2142 96.7 7.75C96.7 5.28583 95.0643 3.5 93.05 3.5H86.9H86.4V4V11.5Z" stroke="black"/>
<path d="M115.768 3.03749C116.867 4.04384 117.486 5.40485 117.594 6.94995H115.428C115.147 4.8714 113.12 3.19995 110.162 3.19995C108.654 3.19995 107.449 3.58888 106.608 4.25256C105.762 4.92097 105.312 5.85075 105.312 6.84995C105.312 7.64346 105.573 8.37861 106.184 8.97132C106.781 9.55056 107.672 9.95503 108.865 10.1905L108.865 10.1905L108.872 10.1919L112.172 10.7919L112.175 10.7923C114.248 11.1598 115.674 11.7652 116.58 12.621C117.467 13.4587 117.912 14.5898 117.912 16.15C117.912 17.7357 117.296 19.1287 116.086 20.1341C114.868 21.1461 113.005 21.8 110.462 21.8C107.931 21.8 105.993 21.0777 104.696 19.9534C103.528 18.9414 102.852 17.5812 102.731 16.05H104.898C105.204 18.1504 107.423 19.8 110.462 19.8C112.24 19.8 113.562 19.4539 114.451 18.8035C115.364 18.1357 115.762 17.1896 115.762 16.15C115.762 15.2339 115.394 14.4571 114.683 13.8616C113.991 13.2822 112.997 12.8915 111.754 12.6585L111.753 12.6583L107.703 11.9083L107.701 11.9079C106.12 11.6232 104.997 10.9999 104.267 10.1535C103.538 9.30842 103.162 8.19414 103.162 6.84995C103.162 5.27092 103.811 3.87234 104.993 2.86122C106.18 1.84652 107.932 1.19995 110.162 1.19995C112.692 1.19995 114.549 1.92164 115.768 3.03749Z" stroke="black"/>
</g>
<defs>
<clipPath id="clip0_5909_3">
<rect width="119" height="23" fill="white"/>
</clipPath>
</defs>
</svg>
