<svg width="119" height="23" viewBox="0 0 119 23" fill="none" xmlns="http://www.w3.org/2000/svg">
<path d="M16.55 14.8C15.83 17.05 13.85 19.3 10.4 19.3C6.47 19.3 3.5 16.3 3.5 11.5C3.5 6.7 6.47 3.7 10.4 3.7C13.07 3.7 15.5 5.2 16.55 8.05H19.85C18.98 4.3 15.65 0.699999 10.4 0.699999C4.88 0.699999 0.35 5.05 0.35 11.5C0.35 17.95 4.88 22.3 10.4 22.3C16.07 22.3 19.13 18.1 19.85 14.8H16.55ZM32.3141 22.3C37.8341 22.3 42.3641 17.95 42.3641 11.5C42.3641 5.05 37.8341 0.699999 32.3141 0.699999C26.7941 0.699999 22.2641 5.05 22.2641 11.5C22.2641 17.95 26.7941 22.3 32.3141 22.3ZM32.3141 3.7C36.2441 3.7 39.2141 6.7 39.2141 11.5C39.2141 16.3 36.2441 19.3 32.3141 19.3C28.3841 19.3 25.4141 16.3 25.4141 11.5C25.4141 6.7 28.3841 3.7 32.3141 3.7ZM45.957 22L59.307 22L59.307 19L49.107 19V0.999999L45.957 0.999999L45.957 22ZM70.107 22.3C75.627 22.3 80.157 17.95 80.157 11.5C80.157 5.05 75.627 0.699999 70.107 0.699999C64.587 0.699999 60.057 5.05 60.057 11.5C60.057 17.95 64.587 22.3 70.107 22.3ZM70.107 3.7C74.037 3.7 77.007 6.7 77.007 11.5C77.007 16.3 74.037 19.3 70.107 19.3C66.177 19.3 63.207 16.3 63.207 11.5C63.207 6.7 66.177 3.7 70.107 3.7ZM83.75 22H86.9V14.5H88.4L95.9 22L99.95 22L92.45 14.5H93.2C96.65 14.5 99.35 11.83 99.35 7.75C99.35 3.67 96.65 0.999999 93.2 0.999999L83.75 0.999999V22ZM86.9 11.5V4L93.05 4C94.73 4 96.2 5.5 96.2 7.75C96.2 10 94.73 11.5 93.05 11.5L86.9 11.5ZM102.212 15.55C102.212 19.3 105.212 22.3 110.462 22.3C115.712 22.3 118.412 19.6 118.412 16.15C118.412 12.82 116.492 11.05 112.262 10.3L108.962 9.7C106.682 9.25 105.812 8.2 105.812 6.85C105.812 5.17 107.312 3.7 110.162 3.7C113.162 3.7 114.962 5.5 114.962 7.45L118.112 7.45C118.112 3.7 115.412 0.699999 110.162 0.699999C105.512 0.699999 102.662 3.4 102.662 6.85C102.662 9.73 104.282 11.8 107.612 12.4L111.662 13.15C114.062 13.6 115.262 14.62 115.262 16.15C115.262 17.95 113.912 19.3 110.462 19.3C107.342 19.3 105.362 17.5 105.362 15.55H102.212Z" fill="#1F2020"/>
</svg>
