<svg width="119" height="23" fill="none" xmlns="http://www.w3.org/2000/svg"><g clip-path="url(#a)" stroke="#000"><path d="M10.4 19.8c3.537 0 5.646-2.212 6.505-4.5h2.299c-.906 3.017-3.771 6.5-8.804 6.5-5.226 0-9.55-4.108-9.55-10.3 0-6.192 4.324-10.3 9.55-10.3 4.699 0 7.768 3.026 8.797 6.35H16.89C15.703 4.707 13.166 3.2 10.4 3.2c-2.098 0-3.96.804-5.293 2.263C3.775 6.919 3 8.996 3 11.5s.775 4.58 2.107 6.037C6.44 18.997 8.302 19.8 10.4 19.8ZM41.864 11.5c0 6.192-4.324 10.3-9.55 10.3-5.226 0-9.55-4.108-9.55-10.3 0-6.192 4.324-10.3 9.55-10.3 5.226 0 9.55 4.108 9.55 10.3Zm-2.15 0c0-2.504-.776-4.58-2.108-6.037-1.333-1.46-3.194-2.263-5.292-2.263s-3.96.804-5.293 2.263c-1.332 1.456-2.107 3.533-2.107 6.037s.775 4.58 2.107 6.037c1.333 1.46 3.195 2.263 5.293 2.263 2.098 0 3.96-.804 5.292-2.263 1.332-1.456 2.108-3.533 2.108-6.037ZM48.607 19v.5h10.2v2h-12.35v-20h2.15V19ZM79.657 11.5c0 6.192-4.324 10.3-9.55 10.3-5.226 0-9.55-4.108-9.55-10.3 0-6.192 4.324-10.3 9.55-10.3 5.226 0 9.55 4.108 9.55 10.3Zm-2.15 0c0-2.504-.776-4.58-2.108-6.037-1.333-1.46-3.195-2.263-5.292-2.263-2.098 0-3.96.804-5.293 2.263-1.331 1.456-2.107 3.533-2.107 6.037s.776 4.58 2.107 6.037c1.333 1.46 3.195 2.263 5.293 2.263 2.097 0 3.959-.804 5.293-2.263 1.33-1.456 2.107-3.533 2.107-6.037ZM92.096 14.854l6.647 6.646h-2.636l-7.353-7.354-.147-.146H86.4v7.5h-2.15v-20h8.95c3.145 0 5.65 2.416 5.65 6.25S96.345 14 93.2 14h-1.957l.853.854ZM86.4 11.5v.5h6.65c2.014 0 3.65-1.786 3.65-4.25S95.064 3.5 93.05 3.5H86.4v8ZM115.768 3.037c1.099 1.007 1.718 2.368 1.826 3.913h-2.166c-.281-2.079-2.308-3.75-5.266-3.75-1.508 0-2.713.389-3.554 1.053-.846.668-1.296 1.598-1.296 2.597 0 .793.261 1.529.872 2.121.597.58 1.488.984 2.681 1.22h.007l3.3.6.003.001c2.073.368 3.499.973 4.405 1.829.887.838 1.332 1.969 1.332 3.529 0 1.586-.616 2.979-1.826 3.984-1.218 1.012-3.081 1.666-5.624 1.666-2.531 0-4.469-.722-5.766-1.847a5.666 5.666 0 0 1-1.965-3.903h2.167c.306 2.1 2.525 3.75 5.564 3.75 1.778 0 3.1-.346 3.989-.997.913-.667 1.311-1.613 1.311-2.653 0-.916-.368-1.693-1.079-2.288-.692-.58-1.686-.97-2.929-1.204h-.001l-4.05-.75h-.002c-1.581-.285-2.704-.908-3.434-1.755-.729-.845-1.105-1.959-1.105-3.303 0-1.58.649-2.978 1.831-3.989 1.187-1.014 2.939-1.661 5.169-1.661 2.53 0 4.387.722 5.606 1.837Z"/></g><defs><clipPath id="a"><path fill="#fff" d="M0 0h119v23H0z"/></clipPath></defs></svg>